<?xml version="1.0" encoding="UTF-8"?>
<!-- hard coded viewbox values; might not work for other devices but we'll see for now-->
<svg version="1.1" viewBox="160 280 400 175" xmlns="http://www.w3.org/2000/svg">
 <g>
  <path d="m266.77 307.31c-0.29688 0.28906-7.2344 7.1562-7.3633 21.715-0.14062 16.348 8.5039 44.652 50.527 86.672l62.043 62.043 30.059-30.059 137.16 137.16 5.0234-5.0234-274.94-274.93zm130.24 135.36-25.035 25.035-57.02-57.023c-57.164-57.168-49.871-86.434-45.219-95.293z"/>
  <path d="m405.54 345.28c4.3906-5.5078 6.793-12.281 6.7969-19.422 0-8.3438-3.25-16.191-9.1484-22.098l-64.887-64.887-5.0234 5.0234 60.387 60.387-14.559 14.559-60.664-60.664-5.0234 5.0234 60.664 60.664-14.566 14.566-60.387-60.387-5.0234 5.0234 64.887 64.887c6.0898 6.0898 14.09 9.1367 22.086 9.1367 6.8867 0 13.766-2.2695 19.441-6.7852l186.61 186.6 5.0234-5.0234zm-40.945-1.875 14.512-14.516 16.285 16.285c-9.2461 6.8516-22.23 6.2812-30.797-1.7695zm35.82-3.25-16.285-16.285 14.504-14.504c8.0508 8.5625 8.625 21.543 1.7812 30.789z"/>
  <path d="m359.27 558.9c-106.04 0-192.31-86.277-192.31-192.32s86.273-192.32 192.31-192.32c106.04 0 192.31 86.273 192.31 192.32 0 31.777-7.7969 61.75-21.496 88.184l5.2773 5.2773c14.867-27.898 23.324-59.703 23.324-93.461 0-109.96-89.461-199.42-199.41-199.42-109.96 0-199.42 89.461-199.42 199.42 0 109.96 89.461 199.43 199.41 199.43 41.359 0 79.812-12.664 111.7-34.305l-5.1289-5.125c-30.523 20.398-67.172 32.324-106.57 32.324z"/>
  <path d="m493.45 513.99c9.7266-8.8672 18.559-18.691 26.387-29.301l-5.0898-5.0898c-7.7695 10.66-16.574 20.52-26.32 29.367z"/>
  <path d="m514.9 439.57c10.438-22.168 16.305-46.902 16.305-72.988 0-94.801-77.129-171.93-171.93-171.93-94.812 0-171.94 77.129-171.94 171.93 0 94.805 77.133 171.93 171.94 171.93 33.754 0 65.234-9.8164 91.824-26.688l-5.1367-5.1367c-25.203 15.652-54.898 24.723-86.684 24.723-90.891 0-164.84-73.941-164.84-164.83 0-90.887 73.945-164.82 164.84-164.82 90.879 0 164.82 73.941 164.82 164.82 0 24.09-5.2383 46.969-14.566 67.621z"/>
  <path d="m468.95 489.49 5.0352 5.0352c9.8047-8.8008 18.574-18.719 26.156-29.539l-5.0898-5.0898c-7.5039 10.875-16.273 20.812-26.102 29.594z"/>
 </g>
</svg>
